<?xml version="1.0" encoding="UTF-8"?>
<svg xmlns="http://www.w3.org/2000/svg" xmlns:xlink="http://www.w3.org/1999/xlink" width="25px" height="25px" viewBox="0 0 25 25" version="1.1">
<g id="surface1">
<path style=" stroke:none;fill-rule:nonzero;fill:rgb(100%,100%,100%);fill-opacity:1;" d="M 22.210938 1.886719 C 21.902344 2.042969 17.238281 4.453125 11.839844 7.238281 C 6.441406 10.019531 1.996094 12.335938 1.964844 12.378906 C 1.878906 12.492188 1.886719 12.652344 1.988281 12.746094 C 2.046875 12.796875 3.386719 13.046875 6.539062 13.585938 C 8.996094 14.007812 11.015625 14.355469 11.015625 14.359375 C 11.019531 14.359375 11.472656 16.351562 12.03125 18.785156 C 12.871094 22.472656 13.054688 23.21875 13.136719 23.285156 C 13.269531 23.398438 13.339844 23.398438 13.46875 23.285156 C 13.578125 23.199219 23.09375 2.042969 23.09375 1.894531 C 23.09375 1.847656 23.066406 1.777344 23.035156 1.734375 C 22.902344 1.566406 22.78125 1.585938 22.210938 1.886719 Z M 22.210938 1.886719 "/>
</g>
</svg>
